<mxfile host="app.diagrams.net" modified="2024-12-19T02:59:08.480Z" agent="5.0 (Macintosh; Intel Mac OS X 10_15_7) AppleWebKit/537.36 (KHTML, like Gecko) Chrome/130.0.0.0 Safari/537.36 Edg/130.0.0.0" etag="slh62ZYfK6GQzmiZ6U7e" version="20.2.1" type="github">
  <diagram id="2xH9JVrwX0NGs8knZG69" name="第 1 页">
    <mxGraphModel dx="938" dy="614" grid="1" gridSize="10" guides="1" tooltips="1" connect="1" arrows="1" fold="1" page="1" pageScale="1" pageWidth="827" pageHeight="1169" math="0" shadow="0">
      <root>
        <mxCell id="0" />
        <mxCell id="1" parent="0" />
        <mxCell id="X_JpOcnhdYqNf58r2mk5-17" value="" style="rounded=0;whiteSpace=wrap;html=1;fillColor=#e1d5e7;strokeColor=#9673a6;" vertex="1" parent="1">
          <mxGeometry x="80" y="620" width="540" height="120" as="geometry" />
        </mxCell>
        <mxCell id="X_JpOcnhdYqNf58r2mk5-16" value="" style="rounded=0;whiteSpace=wrap;html=1;fillColor=#ffe6cc;strokeColor=#d79b00;" vertex="1" parent="1">
          <mxGeometry x="630" y="370" width="140" height="280" as="geometry" />
        </mxCell>
        <mxCell id="X_JpOcnhdYqNf58r2mk5-15" value="" style="rounded=0;whiteSpace=wrap;html=1;fillColor=#dae8fc;strokeColor=#6c8ebf;" vertex="1" parent="1">
          <mxGeometry x="80" y="370" width="510" height="220" as="geometry" />
        </mxCell>
        <mxCell id="X_JpOcnhdYqNf58r2mk5-1" value="订单服务" style="rounded=1;whiteSpace=wrap;html=1;" vertex="1" parent="1">
          <mxGeometry x="290" y="500" width="120" height="60" as="geometry" />
        </mxCell>
        <mxCell id="X_JpOcnhdYqNf58r2mk5-2" value="秒杀服务" style="rounded=1;whiteSpace=wrap;html=1;" vertex="1" parent="1">
          <mxGeometry x="130" y="400" width="120" height="60" as="geometry" />
        </mxCell>
        <mxCell id="X_JpOcnhdYqNf58r2mk5-3" value="支付服务" style="rounded=1;whiteSpace=wrap;html=1;" vertex="1" parent="1">
          <mxGeometry x="460" y="500" width="120" height="60" as="geometry" />
        </mxCell>
        <mxCell id="X_JpOcnhdYqNf58r2mk5-4" value="库存服务" style="rounded=1;whiteSpace=wrap;html=1;" vertex="1" parent="1">
          <mxGeometry x="130" y="500" width="120" height="60" as="geometry" />
        </mxCell>
        <mxCell id="X_JpOcnhdYqNf58r2mk5-5" value="用户认证服务" style="rounded=1;whiteSpace=wrap;html=1;" vertex="1" parent="1">
          <mxGeometry x="290" y="400" width="120" height="60" as="geometry" />
        </mxCell>
        <mxCell id="X_JpOcnhdYqNf58r2mk5-6" value="MQ队列" style="rounded=1;whiteSpace=wrap;html=1;" vertex="1" parent="1">
          <mxGeometry x="640" y="490" width="120" height="60" as="geometry" />
        </mxCell>
        <mxCell id="X_JpOcnhdYqNf58r2mk5-7" value="缓存" style="rounded=1;whiteSpace=wrap;html=1;" vertex="1" parent="1">
          <mxGeometry x="640" y="400" width="120" height="60" as="geometry" />
        </mxCell>
        <mxCell id="X_JpOcnhdYqNf58r2mk5-9" value="DB主" style="shape=cylinder3;whiteSpace=wrap;html=1;boundedLbl=1;backgroundOutline=1;size=15;" vertex="1" parent="1">
          <mxGeometry x="260" y="640" width="60" height="80" as="geometry" />
        </mxCell>
        <mxCell id="X_JpOcnhdYqNf58r2mk5-10" value="DB从" style="shape=cylinder3;whiteSpace=wrap;html=1;boundedLbl=1;backgroundOutline=1;size=15;" vertex="1" parent="1">
          <mxGeometry x="356" y="640" width="60" height="80" as="geometry" />
        </mxCell>
        <mxCell id="X_JpOcnhdYqNf58r2mk5-11" value="网关" style="rounded=1;whiteSpace=wrap;html=1;fillColor=#d5e8d4;strokeColor=#82b366;" vertex="1" parent="1">
          <mxGeometry x="80" y="300" width="690" height="60" as="geometry" />
        </mxCell>
        <mxCell id="X_JpOcnhdYqNf58r2mk5-13" value="限流" style="rounded=0;whiteSpace=wrap;html=1;" vertex="1" parent="1">
          <mxGeometry x="590" y="330" width="90" height="30" as="geometry" />
        </mxCell>
        <mxCell id="X_JpOcnhdYqNf58r2mk5-14" value="。。。" style="rounded=1;whiteSpace=wrap;html=1;" vertex="1" parent="1">
          <mxGeometry x="640" y="580" width="120" height="60" as="geometry" />
        </mxCell>
        <mxCell id="X_JpOcnhdYqNf58r2mk5-18" value="CDN" style="rounded=0;whiteSpace=wrap;html=1;fillColor=#f5f5f5;fontColor=#333333;strokeColor=#666666;" vertex="1" parent="1">
          <mxGeometry x="590" y="180" width="120" height="60" as="geometry" />
        </mxCell>
        <mxCell id="X_JpOcnhdYqNf58r2mk5-20" style="edgeStyle=orthogonalEdgeStyle;rounded=0;orthogonalLoop=1;jettySize=auto;html=1;" edge="1" parent="1" source="X_JpOcnhdYqNf58r2mk5-19" target="X_JpOcnhdYqNf58r2mk5-18">
          <mxGeometry relative="1" as="geometry" />
        </mxCell>
        <mxCell id="X_JpOcnhdYqNf58r2mk5-21" style="edgeStyle=orthogonalEdgeStyle;rounded=0;orthogonalLoop=1;jettySize=auto;html=1;" edge="1" parent="1" source="X_JpOcnhdYqNf58r2mk5-19">
          <mxGeometry relative="1" as="geometry">
            <mxPoint x="275" y="290" as="targetPoint" />
          </mxGeometry>
        </mxCell>
        <mxCell id="X_JpOcnhdYqNf58r2mk5-19" value="Actor" style="shape=umlActor;verticalLabelPosition=bottom;verticalAlign=top;html=1;outlineConnect=0;" vertex="1" parent="1">
          <mxGeometry x="260" y="180" width="30" height="60" as="geometry" />
        </mxCell>
        <mxCell id="X_JpOcnhdYqNf58r2mk5-23" value="" style="endArrow=classic;html=1;rounded=0;dashed=1;" edge="1" parent="1" target="X_JpOcnhdYqNf58r2mk5-18">
          <mxGeometry width="50" height="50" relative="1" as="geometry">
            <mxPoint x="650" y="280" as="sourcePoint" />
            <mxPoint x="460" y="420" as="targetPoint" />
          </mxGeometry>
        </mxCell>
        <mxCell id="X_JpOcnhdYqNf58r2mk5-24" value="业务系统" style="text;html=1;strokeColor=none;fillColor=none;align=center;verticalAlign=middle;whiteSpace=wrap;rounded=0;" vertex="1" parent="1">
          <mxGeometry x="80" y="380" width="60" height="30" as="geometry" />
        </mxCell>
        <mxCell id="X_JpOcnhdYqNf58r2mk5-25" value="基础服务" style="text;html=1;strokeColor=none;fillColor=none;align=center;verticalAlign=middle;whiteSpace=wrap;rounded=0;" vertex="1" parent="1">
          <mxGeometry x="630" y="370" width="60" height="30" as="geometry" />
        </mxCell>
        <mxCell id="X_JpOcnhdYqNf58r2mk5-26" value="数据库" style="text;html=1;strokeColor=none;fillColor=none;align=center;verticalAlign=middle;whiteSpace=wrap;rounded=0;" vertex="1" parent="1">
          <mxGeometry x="120" y="620" width="60" height="30" as="geometry" />
        </mxCell>
        <mxCell id="X_JpOcnhdYqNf58r2mk5-27" value="Order" style="rounded=1;whiteSpace=wrap;html=1;" vertex="1" parent="1">
          <mxGeometry x="420" y="920" width="120" height="60" as="geometry" />
        </mxCell>
        <mxCell id="X_JpOcnhdYqNf58r2mk5-29" value="Stock" style="rounded=1;whiteSpace=wrap;html=1;" vertex="1" parent="1">
          <mxGeometry x="230" y="1070" width="120" height="60" as="geometry" />
        </mxCell>
        <mxCell id="X_JpOcnhdYqNf58r2mk5-30" value="User" style="rounded=1;whiteSpace=wrap;html=1;" vertex="1" parent="1">
          <mxGeometry x="640" y="920" width="120" height="60" as="geometry" />
        </mxCell>
        <mxCell id="X_JpOcnhdYqNf58r2mk5-31" value="Product" style="rounded=1;whiteSpace=wrap;html=1;" vertex="1" parent="1">
          <mxGeometry x="230" y="920" width="120" height="60" as="geometry" />
        </mxCell>
        <mxCell id="X_JpOcnhdYqNf58r2mk5-32" value="" style="endArrow=none;html=1;rounded=0;" edge="1" parent="1" source="X_JpOcnhdYqNf58r2mk5-27" target="X_JpOcnhdYqNf58r2mk5-30">
          <mxGeometry width="50" height="50" relative="1" as="geometry">
            <mxPoint x="510" y="1090" as="sourcePoint" />
            <mxPoint x="560" y="1040" as="targetPoint" />
          </mxGeometry>
        </mxCell>
        <mxCell id="X_JpOcnhdYqNf58r2mk5-37" value="n:1" style="edgeLabel;html=1;align=center;verticalAlign=middle;resizable=0;points=[];" vertex="1" connectable="0" parent="X_JpOcnhdYqNf58r2mk5-32">
          <mxGeometry x="0.1915" relative="1" as="geometry">
            <mxPoint as="offset" />
          </mxGeometry>
        </mxCell>
        <mxCell id="X_JpOcnhdYqNf58r2mk5-33" value="" style="endArrow=none;html=1;rounded=0;" edge="1" parent="1" source="X_JpOcnhdYqNf58r2mk5-27" target="X_JpOcnhdYqNf58r2mk5-31">
          <mxGeometry width="50" height="50" relative="1" as="geometry">
            <mxPoint x="510" y="1090" as="sourcePoint" />
            <mxPoint x="560" y="1040" as="targetPoint" />
          </mxGeometry>
        </mxCell>
        <mxCell id="X_JpOcnhdYqNf58r2mk5-36" value="n:1" style="edgeLabel;html=1;align=center;verticalAlign=middle;resizable=0;points=[];" vertex="1" connectable="0" parent="X_JpOcnhdYqNf58r2mk5-33">
          <mxGeometry x="0.2517" y="-2" relative="1" as="geometry">
            <mxPoint as="offset" />
          </mxGeometry>
        </mxCell>
        <mxCell id="X_JpOcnhdYqNf58r2mk5-35" value="" style="endArrow=none;html=1;rounded=0;" edge="1" parent="1" source="X_JpOcnhdYqNf58r2mk5-29" target="X_JpOcnhdYqNf58r2mk5-31">
          <mxGeometry width="50" height="50" relative="1" as="geometry">
            <mxPoint x="510" y="1090" as="sourcePoint" />
            <mxPoint x="560" y="1040" as="targetPoint" />
          </mxGeometry>
        </mxCell>
        <mxCell id="X_JpOcnhdYqNf58r2mk5-38" value="1:1" style="edgeLabel;html=1;align=center;verticalAlign=middle;resizable=0;points=[];" vertex="1" connectable="0" parent="X_JpOcnhdYqNf58r2mk5-35">
          <mxGeometry x="0.2667" y="-2" relative="1" as="geometry">
            <mxPoint x="-2" y="7" as="offset" />
          </mxGeometry>
        </mxCell>
        <mxCell id="X_JpOcnhdYqNf58r2mk5-39" value="Pay" style="rounded=1;whiteSpace=wrap;html=1;" vertex="1" parent="1">
          <mxGeometry x="420" y="1070" width="120" height="60" as="geometry" />
        </mxCell>
        <mxCell id="X_JpOcnhdYqNf58r2mk5-40" value="" style="endArrow=none;html=1;rounded=0;" edge="1" parent="1" source="X_JpOcnhdYqNf58r2mk5-39" target="X_JpOcnhdYqNf58r2mk5-27">
          <mxGeometry width="50" height="50" relative="1" as="geometry">
            <mxPoint x="510" y="1130" as="sourcePoint" />
            <mxPoint x="560" y="1080" as="targetPoint" />
          </mxGeometry>
        </mxCell>
        <mxCell id="X_JpOcnhdYqNf58r2mk5-41" value="1:1" style="edgeLabel;html=1;align=center;verticalAlign=middle;resizable=0;points=[];" vertex="1" connectable="0" parent="X_JpOcnhdYqNf58r2mk5-40">
          <mxGeometry x="0.3111" y="-1" relative="1" as="geometry">
            <mxPoint as="offset" />
          </mxGeometry>
        </mxCell>
        <mxCell id="X_JpOcnhdYqNf58r2mk5-42" value="物料。。。。" style="rounded=1;whiteSpace=wrap;html=1;fillColor=#f5f5f5;fontColor=#333333;strokeColor=#666666;" vertex="1" parent="1">
          <mxGeometry x="70" y="920" width="120" height="60" as="geometry" />
        </mxCell>
        <mxCell id="X_JpOcnhdYqNf58r2mk5-43" value="发货。。。。" style="rounded=1;whiteSpace=wrap;html=1;fillColor=#f5f5f5;fontColor=#333333;strokeColor=#666666;" vertex="1" parent="1">
          <mxGeometry x="70" y="1010" width="120" height="60" as="geometry" />
        </mxCell>
      </root>
    </mxGraphModel>
  </diagram>
</mxfile>
